PathFileType	4	(X/Y/Z)	C:\Users\°ÂÌØÂü\Desktop\20201223\Trimmed_Trimmed_Trimmed_Trimmed_bx_n_0_501.trc
DataRate	CameraRate	NumFrames	NumMarkers	Units	OrigDataRate	OrigDataStartFrame	OrigNumFrames
50.00	50.00	       6	43	mm	50.00	201	       802
Frame#	Time	Top.Head			R.Acromium			L.Acromium			Sternum			R.ASIS			L.ASIS			V.Sacral			R.Thigh.Upper			R.Thigh.Front			R.Thigh.Rear			R.Knee.Lat			R.Knee.Med			R.Shank.Upper			R.Shank.Front			R.Shank.Rear			R.Ankle.Lat			R.Midfoot.Lat			R.Toe.Lat			R.Toe.Tip			R.Toe.Med			R.Ankle.Med			R.Midfoot.Sup			R.Heel			L.Thigh.Upper			L.Thigh.Front			L.Thigh.Rear			L.Knee.Lat			L.Knee.Med			L.Shank.Upper			L.Shank.Front			L.Shank.Rear			L.Ankle.Lat			L.Midfoot.Lat			L.Toe.Lat			L.Toe.Tip			L.Toe.Med			L.Ankle.Med			L.Midfoot.Sup			L.Heel			origin1 front left			origin2 front right			origin 3 back right			origin 4 back leftt			
		X1	Y1	Z1	X2	Y2	Z2	X3	Y3	Z3	X4	Y4	Z4	X5	Y5	Z5	X6	Y6	Z6	X7	Y7	Z7	X8	Y8	Z8	X9	Y9	Z9	X10	Y10	Z10	X11	Y11	Z11	X12	Y12	Z12	X13	Y13	Z13	X14	Y14	Z14	X15	Y15	Z15	X16	Y16	Z16	X17	Y17	Z17	X18	Y18	Z18	X19	Y19	Z19	X20	Y20	Z20	X21	Y21	Z21	X22	Y22	Z22	X23	Y23	Z23	X24	Y24	Z24	X25	Y25	Z25	X26	Y26	Z26	X27	Y27	Z27	X28	Y28	Z28	X29	Y29	Z29	X30	Y30	Z30	X31	Y31	Z31	X32	Y32	Z32	X33	Y33	Z33	X34	Y34	Z34	X35	Y35	Z35	X36	Y36	Z36	X37	Y37	Z37	X38	Y38	Z38	X39	Y39	Z39	X40	Y40	Z40	X41	Y41	Z41	X42	Y42	Z42	X43	Y43	Z43	

201	4.000	-261.28922	267.45221	1662.38928	-417.85822	76.25913	1415.00439	-418.94165	432.51810	1397.38965	-468.52866	247.77029	1216.17920	-663.78503	132.48326	1007.55530	-626.83002	347.17249	995.29834	-830.74976	259.42618	1089.56140	-753.52411	83.05769	828.92950	-656.32892	128.59651	800.03247	-750.01129	95.67966	711.62000	-742.53632	116.58151	593.40881	-710.22321	221.91789	553.68237	-758.35809	116.28547	529.34003	-677.89618	164.67043	527.11493	-757.53192	107.88232	477.44632	-697.09460	135.45535	210.29762	-617.34900	76.75880	165.20636	-571.08197	55.31013	163.25407	-495.52841	97.53770	160.48502	-537.04486	148.76544	163.78661	-648.79504	211.84384	224.17003	-600.27698	186.48637	173.37680	-727.58423	202.57727	168.84511	-718.06909	446.71936	853.08759	-637.15802	383.22745	815.29138	-723.96539	441.34396	734.39850	-720.19128	419.52670	597.60217	-711.73254	309.71658	561.67822	-729.82324	424.21198	552.20331	-671.73297	364.70914	534.40131	-771.06061	432.40192	481.31641	-681.54651	423.86285	214.01831	-579.10773	464.58746	164.63626	-540.22290	474.79071	159.46613	-485.94156	417.59854	167.46744	-525.86493	381.06094	176.69380	-653.43573	331.02359	210.71014	-597.90796	346.58231	171.94543	-736.36017	356.32037	161.47884	-444.02518	448.47150	146.38190	-450.43481	75.01083	143.37633	-806.31964	82.58127	141.26671	-799.93341	456.74924	145.14125	
202	4.020	-266.37744	267.98621	1667.56079	-420.32776	76.63359	1418.51282	-421.53009	432.93570	1400.86035	-469.17285	248.13574	1219.23267	-662.12201	132.52814	1008.39313	-625.38544	347.71539	996.88959	-829.76031	259.34320	1089.31079	-751.94385	83.13129	829.19983	-654.86322	128.60463	800.13800	-748.73639	95.71576	711.85608	-741.65985	116.56523	593.59814	-709.44391	221.88737	553.78137	-757.63135	116.26450	529.47766	-677.18982	164.62939	527.12573	-756.93750	107.93474	477.61191	-697.02441	135.50258	210.32640	-617.34247	76.77165	165.21898	-571.08508	55.31302	163.25586	-495.50885	97.53724	160.48750	-537.02606	148.75549	163.80147	-648.72235	211.91217	224.10378	-600.23212	186.50575	173.35976	-727.54675	202.61125	168.86285	-716.80603	446.63031	853.26202	-635.84631	383.37234	815.41425	-722.96899	441.16544	734.56653	-719.36920	419.45444	597.73370	-710.85297	309.62854	561.80634	-729.12451	424.09198	552.33905	-671.02142	364.74896	534.42944	-770.51874	432.24466	481.52640	-681.52472	423.82678	214.05638	-579.12299	464.60571	164.62823	-540.22412	474.79401	159.46893	-485.93600	417.60663	167.42819	-525.84729	381.07788	176.69696	-653.43140	330.88708	210.58408	-597.89294	346.55402	171.92142	-736.31976	356.28415	161.49779	-444.01782	448.46194	146.38364	-450.43832	75.01701	143.36783	-806.25952	82.58125	141.25746	-799.94855	456.75629	145.14708	
203	4.040	-271.68213	268.51306	1672.84680	-422.89502	77.01491	1422.09375	-424.23227	433.36926	1404.42688	-469.84705	248.53082	1222.37036	-660.40100	132.58618	1009.24921	-623.90967	348.24329	998.48474	-828.71808	259.26947	1089.05444	-750.30011	83.22188	829.47900	-653.33734	128.63739	800.24457	-747.40515	95.76851	712.09424	-740.74030	116.56241	593.79852	-708.61560	221.88031	553.89246	-756.86420	116.25671	529.62830	-676.44257	164.60202	527.13275	-756.30658	108.01357	477.77487	-696.94019	135.56210	210.36960	-617.33417	76.78664	165.23466	-571.07819	55.31477	163.26945	-495.48325	97.53913	160.49570	-536.99884	148.75005	163.81558	-648.65643	211.98224	224.02991	-600.18073	186.53282	173.36525	-727.50641	202.65031	168.88515	-715.46118	446.55225	853.44836	-634.44916	383.52127	815.54578	-721.88995	440.99081	734.74042	-718.49268	419.38553	597.87164	-709.92725	309.54807	561.93585	-728.37347	423.98553	552.47119	-670.25995	364.78897	534.46759	-769.93677	432.08920	481.74396	-681.49615	423.79553	214.09982	-579.13904	464.62415	164.62253	-540.22668	474.79788	159.46883	-485.92493	417.60947	167.39188	-525.82440	381.09433	176.70058	-653.42688	330.75000	210.45230	-597.87994	346.52069	171.89075	-736.27380	356.25290	161.51537	-444.01328	448.45657	146.38484	-450.44144	75.02103	143.36037	-806.20428	82.57462	141.25412	-799.95953	456.76727	145.15457	
204	4.060	-277.21350	269.03830	1678.23584	-425.55713	77.40396	1425.73804	-427.04602	433.81845	1408.07813	-470.54828	248.95088	1225.57983	-658.63458	132.65852	1010.12024	-622.40936	348.74268	1000.06451	-827.62939	259.20319	1088.79114	-748.60309	83.32728	829.76392	-651.75989	128.69147	800.35083	-746.02649	95.83918	712.33557	-739.78290	116.57246	594.00562	-707.74207	221.89601	554.01746	-756.06360	116.26311	529.79474	-675.65881	164.58881	527.13507	-755.64264	108.10966	477.93808	-696.84247	135.63287	210.42813	-617.32391	76.80334	165.25504	-571.06012	55.31500	163.29500	-495.45218	97.54246	160.50990	-536.96228	148.75000	163.82671	-648.59583	212.05112	223.95122	-600.12408	186.56374	173.38509	-727.46228	202.69502	168.91263	-714.03656	446.48383	853.64508	-632.97180	383.66913	815.68591	-720.72772	440.82187	734.91937	-717.56519	419.32303	598.01843	-708.95929	309.47699	562.06482	-727.57050	423.89883	552.60211	-669.44556	364.81964	534.51886	-769.31378	431.93881	481.96948	-681.46100	423.76630	214.14705	-579.15442	464.64282	164.62035	-540.23077	474.80234	159.46590	-485.90546	417.60657	167.36206	-525.79669	381.11008	176.70415	-653.41571	330.61725	210.32878	-597.86951	346.48392	171.85358	-736.22357	356.22516	161.53197	-444.01147	448.45523	146.38588	-450.44360	75.02246	143.35364	-806.15790	82.55952	141.25847	-799.96454	456.78149	145.16209	
205	4.080	-282.97989	269.56717	1683.71106	-428.30872	77.80088	1429.43213	-429.96588	434.28262	1411.79761	-471.27417	249.39078	1228.84534	-656.83691	132.74785	1011.00024	-620.89172	349.20264	1001.60858	-826.50201	259.14294	1088.51819	-746.86530	83.44527	830.05066	-650.14319	128.76392	800.45587	-744.61218	95.92812	712.58087	-738.79541	116.59527	594.21417	-706.83099	221.93170	554.15576	-755.23883	116.28441	529.97803	-674.84576	164.58958	527.13263	-754.95117	108.21280	478.10538	-696.73364	135.71294	210.50140	-617.31171	76.82169	165.28165	-571.03204	55.31398	163.33028	-495.41745	97.54588	160.52940	-536.91675	148.75586	163.83272	-648.53833	212.11621	223.87076	-600.06329	186.59514	173.41087	-727.41418	202.74568	168.94504	-712.54156	446.42435	853.84973	-631.42621	383.81436	815.83362	-719.48999	440.66101	735.10254	-716.59521	419.26978	598.17572	-707.95587	309.41699	562.19183	-726.72064	423.83569	552.73444	-668.58087	364.83527	534.58307	-768.65332	431.79590	482.20337	-681.42041	423.73611	214.19585	-579.16736	464.66199	164.62230	-540.23651	474.80725	159.46039	-485.87579	417.59860	167.34166	-525.76538	381.12524	176.70734	-653.39203	330.49222	210.22563	-597.86157	346.44537	171.81100	-736.17108	356.19916	161.54803	-444.01227	448.45770	146.38762	-450.44446	75.02110	143.34723	-806.12415	82.53481	141.27132	-799.96228	456.79797	145.16832	
206	4.100	-288.98547	270.10349	1689.25073	-431.14264	78.20472	1433.15869	-432.98352	434.76151	1415.56348	-472.02267	249.84540	1232.14905	-655.02264	132.85760	1011.88171	-619.36371	349.61655	1003.09784	-825.34454	259.08850	1088.23218	-745.10132	83.57373	830.33496	-648.50220	128.85271	800.55902	-743.17639	96.03461	712.83063	-737.78741	116.63118	594.41901	-705.89355	221.98306	554.30444	-754.40051	116.32088	530.17712	-674.01263	164.60336	527.12653	-754.23969	108.31357	478.28030	-696.61774	135.79979	210.58705	-617.29773	76.84203	165.31560	-570.99731	55.31256	163.37093	-495.38196	97.54781	160.55244	-536.86346	148.76755	163.83189	-648.48175	212.17566	223.79144	-600.00000	186.62482	173.43506	-727.36298	202.80212	168.98114	-710.99188	446.37411	854.05914	-629.83014	383.95941	815.98657	-718.19202	440.51126	735.28894	-715.59637	419.22711	598.34393	-706.92621	309.36948	562.31598	-725.83392	423.79703	552.87048	-667.67480	364.83527	534.65686	-767.96307	431.66196	482.44556	-681.37604	423.70209	214.24379	-579.17639	464.68213	164.62833	-540.24390	474.81262	159.45256	-485.83569	417.58749	167.33235	-525.73236	381.14053	176.71005	-653.35156	330.37680	210.15157	-597.85553	346.40692	171.76491	-736.11847	356.17319	161.56403	-444.01538	448.46390	146.39119	-450.44373	75.01704	143.34091	-806.10632	82.50040	141.29216	-799.95251	456.81558	145.17245	
